<svg xmlns="http://www.w3.org/2000/svg" version="1.1" xmlns:xlink="http://www.w3.org/1999/xlink" xmlns:svgjs="http://svgjs.com/svgjs" width="1920" height="1080" preserveAspectRatio="none" viewBox="0 0 1920 1080"><g mask="url(&quot;#SvgjsMask1012&quot;)" fill="none"><rect width="1920" height="1080" x="0" y="0" fill="#0e2a47"></rect><path d="M960 1353.38C1166.48 1348.62 1326.49 1198.41 1477.28 1057.28 1635.51 909.17 1808.71 755.8 1828.97 540 1850.7 308.63 1757.2 71 1584.51-84.51 1418.63-233.91 1182.84-256.28 960-242.75 752.87-230.17 558.6-154.69 407.09-12.91 249.91 134.21 121.53 324.71 123.74 540 125.91 753.66 265.14 932.73 418.31 1081.69 568.83 1228.09 750.08 1358.21 960 1353.38" fill="#1c538e"></path><path d="M960 1066.31C1093.61 1063.23 1197.14 966.03 1294.71 874.71 1397.1 778.88 1509.16 679.63 1522.28 540 1536.33 390.29 1475.83 236.53 1364.1 135.9 1256.76 39.24 1104.19 24.76 960 33.52 825.98 41.66 700.27 90.5 602.24 182.24 500.53 277.43 417.46 400.7 418.89 540 420.3 678.25 510.39 794.12 609.5 890.5 706.89 985.24 824.17 1069.43 960 1066.31" fill="#2774c6"></path><path d="M960 779.23C1020.73 777.83 1067.79 733.65 1112.14 692.14 1158.68 648.58 1209.62 603.47 1215.58 540 1221.97 471.95 1194.47 402.06 1143.68 356.32 1094.89 312.38 1025.54 305.8 960 309.78 899.08 313.48 841.94 335.68 797.38 377.38 751.15 420.65 713.39 476.68 714.04 540 714.68 602.84 755.63 655.51 800.68 699.32 844.95 742.38 898.26 780.65 960 779.23" fill="#488fdb"></path></g><defs><mask id="SvgjsMask1012"><rect width="1920" height="1080" fill="#ffffff"></rect></mask></defs></svg>