<?xml version="1.0" encoding="UTF-8" standalone="no"?>
<!-- Svg Vector Icons : http://www.onlinewebfonts.com/icon -->

<svg
   version="1.1"
   x="0px"
   y="0px"
   viewBox="0 0 1000 1000"
   enable-background="new 0 0 1000 1000"
   xml:space="preserve"
   id="svg910"
   sodipodi:docname="logo.svg"
   inkscape:version="1.1.1 (3bf5ae0d25, 2021-09-20)"
   xmlns:inkscape="http://www.inkscape.org/namespaces/inkscape"
   xmlns:sodipodi="http://sodipodi.sourceforge.net/DTD/sodipodi-0.dtd"
   xmlns="http://www.w3.org/2000/svg"
   xmlns:svg="http://www.w3.org/2000/svg"><defs
   id="defs914" /><sodipodi:namedview
   id="namedview912"
   pagecolor="#505050"
   bordercolor="#eeeeee"
   borderopacity="1"
   inkscape:pageshadow="0"
   inkscape:pageopacity="0"
   inkscape:pagecheckerboard="0"
   showgrid="false"
   inkscape:zoom="0.809"
   inkscape:cx="500"
   inkscape:cy="500"
   inkscape:window-width="1920"
   inkscape:window-height="1017"
   inkscape:window-x="-8"
   inkscape:window-y="32"
   inkscape:window-maximized="1"
   inkscape:current-layer="g908" />
<metadata
   id="metadata870"> Svg Vector Icons : http://www.onlinewebfonts.com/icon </metadata>
<g
   id="g908"><g
     id="g876"
     style="fill:#2e3440;fill-opacity:1"><g
       id="g874"
       style="fill:#2e3440;fill-opacity:1"><path
         d="M368.9,787.5l-49.6,49.2c-43,42.6-112.9,42.6-155.9,0c-20.7-20.5-32-47.7-32-76.6c0-28.9,11.4-56.2,32-76.7L346,502.4c37.8-37.5,109-92.7,160.9-41.3c23.8,23.6,62.2,23.5,85.9-0.3c23.6-23.8,23.5-62.2-0.3-85.9c-88.2-87.5-218.5-71.3-332,41.3L77.9,597.3C34.1,640.8,10,698.6,10,760.1s24.1,119.4,67.9,162.8C123,967.7,182.2,990,241.4,990c59.2,0,118.4-22.3,163.5-67.1l49.6-49.3c23.8-23.6,23.9-62.1,0.3-85.9C431.2,764,392.7,763.9,368.9,787.5z M922.1,84C827.4-9.9,695-15,607.3,72l-61.8,61.4c-23.8,23.6-23.9,62.1-0.3,85.9c23.6,23.8,62.1,23.9,85.9,0.3l61.8-61.3c45.4-45.1,104.9-26.4,143.7,12.1c20.7,20.5,32,47.7,32,76.7c0,28.9-11.4,56.2-32,76.7L641.8,516.8c-89,88.3-130.8,46.9-148.6,29.2c-23.8-23.6-62.2-23.5-85.9,0.3c-23.6,23.8-23.5,62.2,0.3,85.9c40.9,40.6,87.5,60.7,136.5,60.7c59.9,0,123.1-30.2,183.3-89.9l194.7-193.2c43.8-43.5,67.9-101.3,67.9-162.9C990,185.4,965.9,127.5,922.1,84z"
         id="path872"
         style="fill:#2e3440;fill-opacity:1" /></g></g><g
     id="g878" /><g
     id="g880" /><g
     id="g882" /><g
     id="g884" /><g
     id="g886" /><g
     id="g888" /><g
     id="g890" /><g
     id="g892" /><g
     id="g894" /><g
     id="g896" /><g
     id="g898" /><g
     id="g900" /><g
     id="g902" /><g
     id="g904" /><g
     id="g906" /></g>
</svg>
